# AST/ASF file generated using VICON BodyLanguage
# -----------------------------------------------
:version 1.10
:name VICON
:units
  mass 1.0
  length 0.45
  angle deg
:documentation
   .ast/.asf automatically generated from VICON data using
   VICON BodyBuilder and BodyLanguage model FoxedUp or BRILLIANT.MOD
:root
   order TX TY TZ RX RY RZ
   axis XYZ
   position 0 0 0  
   orientation 0 0 0 
:bonedata
  begin
     id 1 
     name lhipjoint
     direction 0.603808 -0.713975 0.35448 
     length 2.2025 
     axis 0 0 0  XYZ
  end
  begin
     id 2 
     name lfemur
     direction 0.34202 -0.939693 0  
     length 6.55877  
     axis 0 0 20  XYZ
    dof rx ry rz
    limits (-160.0 20.0)
           (-70.0 70.0)
           (-60.0 70.0)
  end
  begin
     id 3 
     name ltibia
     direction 0.34202 -0.939693 0   
     length 6.80302   
     axis 0 0 20   XYZ
    dof rx
    limits (-10.0 170.0)
  end
  begin
     id 4 
     name lfoot
     direction 0.091848 -0.25235 0.963267   
     length 2.03446   
     axis -90 7.62852e-016 20   XYZ
    dof rx rz
    limits (-45.0 90.0)
           (-70.0 20.0)
  end
  begin
     id 5 
     name ltoes
     direction 1.53608e-011 -4.21925e-011 1   
     length 1.02033   
     axis -90 7.62852e-016 20   XYZ
    dof rx
    limits (-90.0 20.0)
  end
  begin
     id 6 
     name rhipjoint
     direction -0.587285 -0.724947 0.359928   
     length 2.16916  
     axis 0 0 0  XYZ 
  end
  begin
     id 7 
     name rfemur
     direction -0.34202 -0.939693 0   
     length 6.43173   
     axis 0 0 -20   XYZ
    dof rx ry rz
    limits (-160.0 20.0)
           (-70.0 70.0)
           (-70.0 60.0)
  end
  begin
     id 8 
     name rtibia
     direction -0.34202 -0.939693 0   
     length 6.70662   
     axis 0 0 -20   XYZ
    dof rx
    limits (-10.0 170.0)
 end
 begin
     id 9 
     name rfoot
     direction -0.11854 -0.325686 0.938018   
     length 2.0773  
     axis -90 -7.62852e-016 -20   XYZ
    dof rx rz
    limits (-45.0 90.0)
           (-20.0 70.0)
  end
  begin
     id 10 
     name rtoes
     direction -1.53547e-011 -4.21838e-011 1   
     length 1.03267   
     axis -90 -7.62852e-016 -20   XYZ
    dof rx
    limits (-90.0 20.0)
  end
  begin
     id 11 
     name lowerback
     direction -0.0286554 0.999539 0.0100613   
     length 2.08751   
     axis 0 0 0   XYZ
    dof rx ry rz
    limits (-20.0 45.0)
           (-30.0 30.0)
           (-30.0 30.0)
  end
  begin
     id 12 
     name upperback
     direction 0.0227093 0.999705 -0.00860929   
     length 2.08517   
     axis 0 0 0   XYZ
    dof rx ry rz
    limits (-20.0 45.0)
           (-30.0 30.0)
           (-30.0 30.0)
  end
  begin
     id 13 
     name thorax
     direction 0.0351627 0.999285 -0.013892   
     length 2.08412   
     axis 0 0 0   XYZ
    dof rx ry rz
    limits (-20.0 45.0)
           (-30.0 30.0)
           (-30.0 30.0)
  end
  begin
     id 14 
     name lowerneck
     direction -0.0696283 0.997344 0.0213922   
     length 1.44164   
     axis 0 0 0   XYZ
    dof rx ry rz
    limits (-20.0 45.0)
           (-30.0 30.0)
           (-30.0 30.0)
  end
  begin
     id 15 
     name upperneck
     direction 0.0531 0.990412 -0.127531   
     length 1.45022   
     axis 0 0 0   XYZ
    dof rx ry rz
    limits (-20.0 45.0)
           (-30.0 30.0)
           (-30.0 30.0)
  end
  begin
     id 16
     name head
     direction 0.0188154 0.998548 -0.0504727  
     length 1.45845  
     axis 0 0 0   XYZ
    dof rx ry rz
    limits (-20.0 45.0)
           (-30.0 30.0)
           (-30.0 30.0)
  end
  begin
     id 17 
     name lclavicle
     direction 0.961559 0.260051 0.088188  
     length 2.86057  
     axis 0 0 0   XYZ
    dof ry rz
    limits (-20.0 10.0)
           (0.0 20.0)
  end
  begin
     id 18 
     name lhumerus
     direction 1 -4.48959e-011 2.88185e-027   
     length 4.36901   
     axis 180 -30 -90   XYZ
    dof rx ry rz
    limits (-60.0 90.0)
           (-90.0 90.0)
           (-90.0 90.0)
  end
  begin
     id 19
     name lradius
     direction 1 -4.48965e-011 -3.92618e-028   
     length 3.21737   
     axis 180 -30 -90   XYZ
    dof rx
    limits (-10.0 170.0)
  end
  begin
     id 20
     name lwrist
     direction 1 -4.49037e-011 2.57246e-027   
     length 1.60869   
     axis -1.61769e-015 90 90   XYZ
    dof ry
    limits (-180.0 0.0)
 end
  begin
     id 21 
     name lhand
     direction 1 -4.48807e-011 5.12958e-027   
     length 0.564313   
     axis -3.27988e-015 90 90   XYZ
    dof rx rz
    limits (-90.0 90.0)
           (-45.0 45.0)
  end
  begin
     id 22 
     name lfingers
     direction 1 -4.48879e-011 1.02687e-026   
     length 0.454963   
     axis -6.5598e-015 90 90   XYZ
    dof rx
    limits (0.0 90.0)
  end
  begin
     id 23
     name lthumb
     direction 0.707107 -6.3475e-011 0.707107   
     length 0.653239   
     axis -90 45 2.19363e-014   XYZ
    dof rx rz
    limits (-45.0 45.0)
           (-45.0 45.0)
  end
  begin
     id 24 
     name rclavicle
     direction -0.954677 0.253915 0.155304   
     length 3.11497  
     axis 0 0 0   XYZ 
    dof ry rz
    limits (-10.0 20.0)
           (-20.0 0.0)
  end
  begin
     id 25 
     name rhumerus
     direction -1 -4.48958e-011 -8.20169e-028  
     length 4.34118   
     axis 180 30 90   XYZ
    dof rx ry rz
    limits (-90.0 60.0)
           (-90.0 90.0)
           (-90.0 90.0)
  end
  begin
     id 26 
     name rradius
     direction -1 -4.48978e-011 1.5676e-027   
     length 3.09531   
     axis 180 30 90   XYZ
    dof rx
    limits (-10.0 170.0)
  end
  begin
     id 27 
     name rwrist
     direction -1 -4.49001e-011 2.57123e-027   
     length 1.54765   
     axis -1.61769e-015 -90 -90   XYZ
    dof ry
    limits (-180.0 0.0)
  end
  begin
     id 28
     name rhand
     direction -1 -4.48847e-011 5.13225e-027   
     length 0.597446   
     axis -3.27988e-015 -90 -90   XYZ
    dof rx rz
    limits (-90.0 90.0)
           (-45.0 45.0)
  end
  begin
     id 29
     name rfingers
     direction -1 -4.49094e-011 1.02974e-026   
     length 0.481677   
     axis -6.5598e-015 -90 -90   XYZ
    dof rx
    limits (0.0 90.0)
  end
  begin
     id 30
     name rthumb
     direction -0.707107 -6.34859e-011 0.707107   
     length 0.691594   
     axis -90 -45 -2.19363e-014   XYZ
    dof rx rz
    limits (-45.0 45.0)
           (-45.0 45.0)
  end
:hierarchy
  begin
    root lhipjoint rhipjoint lowerback
    lhipjoint lfemur
    lfemur ltibia
    ltibia lfoot
    lfoot ltoes
    rhipjoint rfemur
    rfemur rtibia
    rtibia rfoot
    rfoot rtoes
    lowerback upperback
    upperback thorax
    thorax lowerneck lclavicle rclavicle
    lowerneck upperneck
    upperneck head
    lclavicle lhumerus
    lhumerus lradius
    lradius lwrist
    lwrist lhand lthumb
    lhand lfingers
    rclavicle rhumerus
    rhumerus rradius
    rradius rwrist
    rwrist rhand rthumb
    rhand rfingers
  end

#!OML:ASF I:\Acrobat_Osman\acrobat\cartwheel_test 2\Patient 1\Session 1\acrobat.ASF
:FULLY-SPECIFIED
:DEGREES
161
root 12.2345 16.1828 -3.16172 -182.244 54.5073 4.09686
lowerback -0.278141 -3.16246 -4.49762
upperback -10.9527 -4.70704 1.78924
thorax -11.0704 -1.85325 4.86824
lowerneck -14.7372 -2.59531 -9.05709
upperneck -8.52126 -1.88715 5.22958
head -0.0676317 -0.567559 3.22936
rclavicle -2.42517e-014 -1.71949e-014
rhumerus 41.7393 -31.1678 -14.221
rradius 49.4271
rwrist 16.7431
rhand -48.7559 257.614
rfingers 7.12502
rthumb -21.3946 73.5468
lclavicle -2.42517e-014 -1.71949e-014
lhumerus 67.3559 40.0712 33.695
lradius 52.0757
lwrist 86.1042
lhand -39.0413 -95.3801
lfingers 7.12502
lthumb -12.0435 234.986
rfemur 2.5116 -9.43742 8.49391
rtibia 67.444
rfoot 7.41519 -16.2706
rtoes 12.5112
lfemur -357.64 17.953 -367.38
ltibia 47.5005
lfoot 11.9085 -13.199
ltoes -11.1199
162
root 12.256 16.3163 -3.48508 -184.294 56.3221 2.28968
lowerback -0.329555 -2.7553 -4.28435
upperback -10.8436 -4.11013 1.56282
thorax -11.0062 -1.58033 4.44681
lowerneck -15.0832 -2.63471 -8.57453
upperneck -8.48003 -1.99276 4.9386
head -0.000425205 -0.634951 3.02897
rclavicle 1.39845e-013 4.57205e-014
rhumerus 41.232 -30.2639 -12.4122
rradius 48.0365
rwrist 14.8099
rhand -48.4615 259.738
rfingers 7.12502
rthumb -21.1118 71.3909
lclavicle 1.39845e-013 4.57205e-014
lhumerus 70.1151 39.76 36.6055
lradius 50.9828
lwrist 83.4286
lhand -39.2423 -95.7166
lfingers 7.12502
lthumb -12.2373 234.661
rfemur 2.62766 -10.4642 9.22429
rtibia 64.9614
rfoot 8.26057 -13.9769
rtoes 9.9269
lfemur -359.022 17.4863 -367.985
ltibia 46.7329
lfoot 11.2806 -13.0786
ltoes -9.989
163
root 12.2595 16.4239 -3.80259 -186.344 58.2235 0.352847
lowerback -0.566403 -2.42539 -4.10577
upperback -10.7719 -3.61184 1.47406
thorax -10.8449 -1.35168 4.19198
lowerneck -15.4041 -2.65223 -8.80006
upperneck -8.51305 -1.94227 5.005
head 0.0422462 -0.593199 3.09777
rclavicle 2.66371e-014 4.09496e-014
rhumerus 40.5938 -28.9315 -10.3045
rradius 47.2638
rwrist 12.0229
rhand -48.2144 263.864
rfingers 7.12502
rthumb -20.8744 67.2389
lclavicle 2.66371e-014 4.09496e-014
lhumerus 72.2184 39.6148 38.6982
lradius 49.8765
lwrist 81.1368
lhand -39.5017 -96.1238
lfingers 7.12502
lthumb -12.4874 234.269
rfemur 2.86807 -10.8037 10.303
rtibia 62.4122
rfoot 8.83198 -11.9884
rtoes 8.24636
lfemur -360.366 17.1262 -368.414
ltibia 46.1383
lfoot 10.2607 -12.5381
ltoes -10.2203
164
root 12.254 16.5282 -4.10723 -188.717 60.1752 -2.03943
lowerback -1.00251 -2.28379 -4.10676
upperback -10.8 -3.37495 1.6293
thorax -10.6292 -1.22921 4.31677
lowerneck -15.359 -2.52447 -9.99822
upperneck -8.6693 -1.54871 5.52115
head -0.0247492 -0.339887 3.53379
rclavicle 6.12257e-014 -9.54166e-015
rhumerus 40.335 -26.9662 -8.1607
rradius 47.0154
rwrist 8.7776
rhand -48.5962 87.6267
rfingers 7.12502
rthumb -21.2412 58.7706
lclavicle 6.12257e-014 -9.54166e-015
lhumerus 73.1474 39.8471 39.5685
lradius 48.7313
lwrist 79.1656
lhand -39.9041 -97.3266
lfingers 7.12502
lthumb -12.8754 233.091
rfemur 3.14639 -10.8169 11.2116
rtibia 59.9966
rfoot 9.11333 -10.1584
rtoes 6.41397
lfemur -361.759 16.7936 -368.902
ltibia 45.6086
lfoot 9.17405 -11.4231
ltoes -11.3913
165
root 12.2402 16.6201 -4.40406 -191.428 62.0503 -4.81382
lowerback -1.58662 -2.14438 -4.10486
upperback -10.7958 -3.14393 1.64839
thorax -10.2961 -1.12035 4.28645
lowerneck -15.4103 -2.36226 -10.6333
upperneck -8.74774 -1.19729 5.83525
head -0.0616744 -0.128497 3.7909
rclavicle 4.21423e-014 1.59028e-014
rhumerus 37.932 -24.542 -5.03071
rradius 49.6715
rwrist 4.86305
rhand -47.7619 86.3386
rfingers 7.12502
rthumb -20.4396 57.3944
lclavicle 4.21423e-014 1.59028e-014
lhumerus 74.3889 39.9501 40.5291
lradius 47.4717
lwrist 76.9367
lhand -40.1233 -98.0098
lfingers 7.12502
lthumb -13.0866 232.421
rfemur 3.59461 -10.5594 11.9814
rtibia 57.6767
rfoot 9.0115 -8.77809
rtoes 5.53189
lfemur -363.173 16.0781 -369.423
ltibia 45.1372
lfoot 8.01713 -10.2567
ltoes -13.6873
166
root 12.2203 16.6954 -4.69697 -194.31 63.9097 -7.68471
lowerback -2.115 -1.96956 -4.00859
upperback -10.7955 -2.86306 1.6418
thorax -10.012 -0.992774 4.17995
lowerneck -15.384 -2.31023 -10.4901
upperneck -8.84757 -1.14966 5.87668
head -0.104385 -0.10547 3.77982
rclavicle -1.54257e-013 -4.21423e-014
rhumerus 36.9796 -23.2965 -4.39153
rradius 51.0834
rwrist 3.49916
rhand -47.6424 83.1219
rfingers 7.12502
rthumb -20.3248 54.1654
lclavicle -1.54257e-013 -4.21423e-014
lhumerus 75.7063 39.8955 41.5883
lradius 46.2486
lwrist 74.6377
lhand -40.2208 -98.0408
lfingers 7.12502
lthumb -13.1807 232.396
rfemur 4.19454 -10.0738 12.8621
rtibia 55.5246
rfoot 9.0573 -7.5362
rtoes 4.20069
lfemur -364.484 14.8922 -369.76
ltibia 44.6602
lfoot 6.88911 -9.50426
ltoes -16.4953
167
root 12.1987 16.7594 -4.98414 -197.534 65.8471 -10.8048
lowerback -2.50235 -1.70902 -3.7878
upperback -10.7915 -2.46544 1.58462
thorax -9.82421 -0.814026 3.9536
lowerneck -15.107 -2.41093 -9.30086
upperneck -9.07392 -1.52487 5.70941
head -0.207804 -0.343527 3.46548
rclavicle 1.26029e-013 3.4191e-014
rhumerus 36.4509 -22.7337 -5.05872
rradius 52.3829
rwrist 3.04143
rhand -47.5052 79.894
rfingers 7.12502
rthumb -20.1929 50.9235
lclavicle 1.26029e-013 3.4191e-014
lhumerus 77.1271 39.6738 42.6646
lradius 45.0263
lwrist 72.3165
lhand -40.401 -98.0864
lfingers 7.12502
lthumb -13.3543 232.362
rfemur 4.9052 -9.6064 13.653
rtibia 53.6279
rfoot 9.24593 -7.01889
rtoes 2.1289
lfemur -365.617 13.3986 -369.918
ltibia 44.1488
lfoot 5.76695 -9.10976
ltoes -19.4084
168
root 12.1772 16.8215 -5.26481 -201.202 67.6933 -14.2335
lowerback -2.75315 -1.39666 -3.41886
upperback -10.792 -2.00546 1.41343
thorax -9.73109 -0.617843 3.52797
lowerneck -15.0729 -2.40811 -9.26403
upperneck -8.90838 -1.53041 5.91973
head -0.154157 -0.350944 3.53261
rclavicle 9.70069e-014 0
rhumerus 35.4695 -22.2292 -5.86202
rradius 54.4553
rwrist 2.02334
rhand -46.9349 77.2538
rfingers 7.12502
rthumb -19.6447 48.2264
lclavicle 9.70069e-014 0
lhumerus 78.804 39.1082 43.9626
lradius 43.784
lwrist 69.6318
lhand -40.5761 -97.8572
lfingers 7.12502
lthumb -13.5231 232.602
rfemur 5.89076 -9.23008 14.3058
rtibia 51.9239
rfoot 8.87702 -7.84936
rtoes 0.839836
lfemur -366.583 11.7241 -369.858
ltibia 43.6638
lfoot 5.00277 -8.50536
ltoes -19.8125
169
root 12.1467 16.8592 -5.53519 -205.447 69.2619 -18.1541
lowerback -2.91787 -1.07991 -3.16162
upperback -10.8039 -1.55163 1.18748
thorax -9.6936 -0.415083 3.11206
lowerneck -14.9881 -2.38982 -9.10417
upperneck -8.81151 -1.53882 6.06909
head -0.133976 -0.363181 3.55388
rclavicle 8.34896e-014 -1.51076e-014
rhumerus 34.2758 -21.7614 -6.71418
rradius 56.8684
rwrist 0.354166
rhand -46.1946 75.64
rfingers 7.12502
rthumb -18.9329 46.5414
lclavicle 8.34896e-014 -1.51076e-014
lhumerus 80.5826 38.2345 45.4679
lradius 42.573
lwrist 66.732
lhand -40.6936 -97.4802
lfingers 7.12502
lthumb -13.6364 232.986
rfemur 7.05633 -8.97383 14.7689
rtibia 50.4748
rfoot 8.10211 -8.93036
rtoes 0.168189
lfemur -367.408 10.4732 -369.591
ltibia 43.1623
lfoot 4.73953 -7.81762
ltoes -17.678
170
root 12.1101 16.8854 -5.79618 -210.148 70.6217 -22.5
lowerback -3.06115 -0.749297 -2.94427
upperback -10.82 -1.08304 0.936827
thorax -9.66748 -0.201931 2.69345
lowerneck -14.8431 -2.35329 -8.7416
upperneck -8.79905 -1.56229 6.00005
head -0.156724 -0.390345 3.45712
rclavicle 7.87187e-014 3.73715e-014
rhumerus 32.9739 -21.3689 -7.76764
rradius 59.2718
rwrist -1.32958
rhand -46.0606 75.2532
rfingers 7.12502
rthumb -18.8039 46.1421
lclavicle 7.87187e-014 3.73715e-014
lhumerus 82.2404 37.2491 46.7916
lradius 41.3854
lwrist 64.1465
lhand -40.8159 -97.5987
lfingers 7.12502
lthumb -13.7542 232.876
rfemur 8.31583 -8.61915 15.1979
rtibia 49.1245
rfoot 7.53182 -9.86418
rtoes -0.429064
lfemur -368.26 9.92987 -369.112
ltibia 42.7386
lfoot 4.48958 -7.42969
ltoes -16.5658
171
root 12.0643 16.8914 -6.0479 -215.206 71.8601 -27.2448
lowerback -3.2845 -0.419671 -2.68971
upperback -10.8677 -0.614838 0.687406
thorax -9.62266 0.0080247 2.25629
lowerneck -14.6131 -2.38214 -8.08629
upperneck -8.71742 -1.7376 5.8003
head -0.16466 -0.510771 3.25047
rclavicle -7.31528e-014 -1.27222e-014
rhumerus 32.05 -20.9701 -8.34879
rradius 60.9307
rwrist -3.17711
rhand -46.9751 74.3599
rfingers 7.12502
rthumb -19.6833 45.3365
lclavicle -7.31528e-014 -1.27222e-014
lhumerus 83.2595 36.3256 47.3181
lradius 40.4133
lwrist 62.1966
lhand -40.82 -97.9504
lfingers 7.12502
lthumb -13.7581 232.525
rfemur 9.56102 -8.14255 15.6345
rtibia 47.8848
rfoot 7.33991 -10.4538
rtoes -1.78927
lfemur -369.176 9.87407 -368.465
ltibia 42.3469
lfoot 3.93684 -7.12631
ltoes -17.4581
